<?xml version="1.0" encoding="UTF-8" ?>
<!DOCTYPE svg PUBLIC "-//W3C//DTD SVG 1.1//EN" "http://www.w3.org/Graphics/SVG/1.1/DTD/svg11.dtd">
<svg width="168pt" height="55pt" viewBox="0 0 168 55" version="1.1" xmlns="http://www.w3.org/2000/svg">
<path fill="#ffffff" d=" M 0.00 0.00 L 168.00 0.00 L 168.00 55.00 L 0.00 55.00 L 0.00 0.00 Z" />
<path fill="#515151" d=" M 99.12 8.48 C 101.03 8.43 102.94 8.40 104.85 8.38 C 104.07 12.42 103.71 16.52 103.35 20.62 C 105.69 19.18 108.15 17.36 111.08 17.93 C 114.85 17.99 116.53 22.78 115.14 25.83 C 114.10 27.73 112.67 29.39 111.44 31.16 C 113.09 31.04 114.74 30.91 116.39 30.76 C 116.52 25.66 118.59 19.61 124.02 18.08 C 128.13 17.90 132.28 18.42 136.42 18.37 L 135.07 20.31 C 135.79 20.23 137.23 20.07 137.96 19.99 L 136.16 19.22 C 138.29 17.36 141.15 17.36 143.00 19.53 C 145.26 19.47 147.51 19.31 149.77 19.11 C 149.29 23.12 148.65 27.11 148.06 31.11 C 148.92 31.13 150.64 31.16 151.50 31.18 C 150.96 32.74 151.09 34.74 149.73 35.89 C 148.11 36.45 145.99 36.61 144.69 35.28 C 141.52 32.48 143.92 27.96 144.07 24.42 C 143.44 24.41 142.18 24.41 141.55 24.40 C 140.89 26.84 140.31 29.30 139.61 31.74 C 139.12 31.86 138.12 32.11 137.63 32.24 C 136.70 33.72 136.15 36.07 134.07 36.25 C 131.92 36.79 130.22 35.17 128.51 34.17 C 126.43 35.02 124.34 36.46 121.99 36.02 C 119.87 35.59 118.44 33.82 116.92 32.44 C 116.67 33.79 116.39 35.13 116.08 36.46 C 113.87 36.43 111.38 37.05 109.42 35.70 C 106.96 34.15 104.80 32.17 102.38 30.54 C 102.10 32.45 101.84 34.36 101.59 36.28 C 100.56 36.30 98.52 36.36 97.50 36.38 C 97.25 36.14 96.74 35.65 96.49 35.40 C 93.67 36.65 90.70 36.37 88.44 34.18 C 85.96 35.27 83.14 36.98 80.43 35.53 C 78.31 34.74 77.30 32.60 76.34 30.71 C 76.06 32.47 76.52 34.78 74.69 35.84 C 73.11 36.33 71.43 36.30 69.80 36.49 C 66.09 33.20 67.84 28.09 67.63 23.79 C 65.56 22.87 65.75 20.75 65.71 18.86 C 69.26 17.72 69.35 14.26 69.49 11.13 C 71.19 11.08 72.89 11.06 74.60 11.05 C 74.42 13.26 74.20 15.46 73.97 17.67 C 74.60 17.72 75.87 17.81 76.50 17.86 C 76.42 19.54 76.35 21.23 76.29 22.91 C 75.52 22.98 74.00 23.11 73.24 23.18 C 73.03 25.89 72.78 28.59 72.70 31.30 C 73.82 30.93 74.94 30.54 76.06 30.14 C 76.54 25.22 78.72 19.42 84.03 18.07 C 87.93 17.93 91.85 18.45 95.76 18.18 C 95.09 22.40 94.36 26.61 93.83 30.85 C 94.54 30.86 95.96 30.87 96.67 30.87 C 98.45 23.52 97.89 15.90 99.12 8.48 Z" />
<path fill="#515151" d=" M 154.47 11.12 C 156.17 11.08 157.87 11.06 159.58 11.04 C 159.38 13.26 159.14 15.48 158.93 17.69 C 159.59 17.73 160.92 17.80 161.58 17.83 C 161.48 19.53 161.38 21.23 161.29 22.93 C 160.54 22.98 159.04 23.09 158.29 23.14 C 158.06 25.82 157.85 28.51 157.73 31.20 C 158.71 30.92 160.66 30.37 161.63 30.09 C 161.05 31.99 161.51 34.52 159.70 35.82 C 158.10 36.32 156.41 36.31 154.77 36.51 C 150.83 33.01 152.81 27.72 152.82 23.19 C 152.28 23.12 151.21 22.96 150.67 22.89 C 150.78 21.50 150.89 20.12 151.00 18.74 C 154.32 17.54 154.15 14.03 154.47 11.12 Z" />
<path fill="#515151" d=" M 22.07 17.80 C 23.96 17.82 25.85 17.82 27.75 17.80 C 28.79 22.35 31.11 26.85 29.40 31.57 L 31.27 31.01 C 30.91 25.75 33.42 19.49 38.93 18.07 C 42.85 18.06 46.78 18.40 50.71 18.23 C 50.04 22.39 49.10 26.50 48.67 30.69 C 52.29 31.05 56.49 32.65 59.42 29.59 C 59.31 27.89 59.18 26.19 59.05 24.50 C 57.97 25.90 57.05 27.46 55.73 28.66 C 54.04 28.96 52.32 28.87 50.61 28.87 C 52.57 25.21 54.56 21.57 56.41 17.85 C 58.32 17.83 60.24 17.82 62.15 17.79 C 63.24 22.28 65.14 26.70 64.08 31.42 C 64.59 31.30 65.62 31.08 66.14 30.96 C 66.17 31.86 66.23 33.65 66.26 34.55 C 61.91 37.80 56.27 35.91 51.40 35.43 C 48.52 36.41 45.57 36.47 43.29 34.17 C 41.03 35.08 38.67 36.69 36.14 35.87 C 34.63 35.25 33.42 34.14 32.16 33.16 C 30.65 36.92 26.35 36.45 23.01 36.33 C 20.73 36.28 18.58 35.48 16.45 34.75 C 16.54 33.83 16.73 32.00 16.83 31.09 C 19.04 31.10 21.72 32.32 23.61 30.65 C 25.73 29.26 24.60 26.49 24.57 24.44 C 23.57 25.85 22.60 27.29 21.62 28.72 C 19.86 28.82 18.08 28.90 16.31 28.96 C 18.10 25.17 20.14 21.52 22.07 17.80 Z" />
<path fill="#ffffff" d=" M 134.02 21.88 C 135.34 21.87 136.66 21.87 137.99 21.87 L 137.25 21.93 C 137.73 25.40 136.62 28.73 135.17 31.82 C 133.22 28.87 134.90 25.29 135.24 22.14 L 134.02 21.88 Z" />
<path fill="#ffffff" d=" M 40.33 23.33 C 42.05 22.25 44.21 23.92 43.51 25.87 C 42.96 28.21 41.15 31.81 38.23 30.97 C 35.75 28.73 38.00 24.76 40.33 23.33 Z" />
<path fill="#ffffff" d=" M 83.08 30.68 C 80.99 27.18 84.40 22.52 88.36 22.74 C 88.35 25.15 88.79 28.02 86.74 29.79 C 85.92 30.71 84.13 32.02 83.08 30.68 Z" />
<path fill="#ffffff" d=" M 103.91 28.30 C 105.39 26.30 106.82 23.80 109.51 23.35 C 109.70 23.79 110.07 24.67 110.26 25.10 C 108.52 26.79 106.12 27.46 103.91 28.30 Z" />
<path fill="#ffffff" d=" M 125.47 23.35 C 126.65 22.70 128.17 23.07 128.83 24.28 C 129.03 27.05 127.41 29.91 124.95 31.20 C 120.44 30.89 122.80 24.76 125.47 23.35 Z" />
</svg>
