<?xml version="1.0" encoding="UTF-8" ?>
<!DOCTYPE svg PUBLIC "-//W3C//DTD SVG 1.1//EN" "http://www.w3.org/Graphics/SVG/1.1/DTD/svg11.dtd">
<svg width="147pt" height="64pt" viewBox="0 0 147 64" version="1.1" xmlns="http://www.w3.org/2000/svg">
<path fill="#ffffff" d=" M 0.00 0.00 L 147.00 0.00 L 147.00 64.00 L 0.00 64.00 L 0.00 0.00 Z" />
<path fill="#515151" d=" M 84.23 11.43 C 86.10 11.41 87.97 11.39 89.85 11.38 C 89.05 15.40 88.69 19.48 88.43 23.57 C 90.72 22.13 93.17 20.37 96.06 20.93 C 99.84 20.97 101.53 25.77 100.14 28.83 C 99.11 30.71 97.71 32.34 96.56 34.14 C 98.21 34.11 99.85 33.95 101.49 33.70 C 101.41 28.58 103.66 22.66 108.99 21.07 C 112.79 20.81 116.63 21.58 120.46 21.17 C 120.66 21.62 121.05 22.51 121.25 22.95 C 122.34 21.76 123.96 19.93 125.74 21.10 C 128.37 23.10 131.68 22.48 134.70 22.04 C 134.31 26.07 133.69 30.06 133.05 34.06 C 133.88 34.09 135.55 34.14 136.38 34.17 C 135.96 35.92 136.23 38.68 133.94 39.14 C 131.48 39.94 128.89 38.38 128.14 36.00 C 127.95 33.05 128.82 30.16 128.91 27.22 C 128.32 27.28 127.13 27.39 126.54 27.45 C 125.92 29.86 125.29 32.26 124.66 34.67 C 124.12 34.82 123.04 35.13 122.51 35.28 C 121.76 36.87 121.16 39.02 119.09 39.26 C 116.94 39.83 115.23 38.27 113.64 37.11 C 111.51 37.99 109.38 39.49 106.96 39.01 C 105.02 38.52 103.56 37.05 102.01 35.88 C 101.67 37.05 101.34 38.21 101.01 39.38 C 98.80 39.47 96.31 40.08 94.36 38.70 C 91.95 37.10 89.84 35.09 87.34 33.63 C 87.06 35.57 86.80 37.53 86.56 39.48 C 84.68 39.35 82.82 39.11 81.02 38.55 C 78.39 39.75 75.53 39.30 73.58 37.11 C 71.24 38.10 68.74 39.79 66.11 38.81 C 63.75 38.17 62.48 35.99 61.35 34.01 C 61.05 35.67 61.43 37.84 59.70 38.83 C 57.13 40.16 52.97 39.21 52.52 35.94 C 52.29 32.83 52.64 29.71 52.67 26.60 C 50.08 26.08 50.88 23.49 50.90 21.57 C 54.56 20.72 54.19 16.94 54.59 14.00 C 56.25 14.03 57.90 14.05 59.55 14.07 C 59.41 16.22 59.22 18.36 59.03 20.50 C 62.53 20.15 61.17 23.72 61.34 25.90 C 60.56 25.97 59.01 26.12 58.23 26.20 C 58.02 28.88 57.79 31.55 57.73 34.24 C 58.87 33.88 60.00 33.50 61.13 33.10 C 61.42 27.91 64.18 21.65 69.95 20.93 C 73.55 21.17 77.16 21.37 80.77 21.17 C 80.11 25.41 79.27 29.63 78.92 33.92 C 79.61 33.90 81.00 33.86 81.69 33.84 C 83.54 26.49 82.74 18.83 84.23 11.43 Z" />
<path fill="#515151" d=" M 139.39 14.19 C 141.10 14.10 142.81 14.04 144.52 13.98 C 144.82 16.45 142.49 20.53 145.97 21.37 C 145.99 22.87 145.99 24.38 146.00 25.89 C 145.31 25.98 143.92 26.15 143.22 26.24 C 143.03 28.87 142.83 31.49 142.77 34.12 C 143.64 33.90 145.39 33.45 146.27 33.23 C 149.20 38.13 140.95 41.80 138.23 37.61 C 136.20 34.29 137.99 30.19 137.81 26.54 C 134.94 26.24 135.96 23.48 136.01 21.50 C 139.52 20.71 139.09 16.97 139.39 14.19 Z" />
<path fill="#515151" d=" M 7.04 20.82 C 8.98 20.82 10.92 20.83 12.86 20.82 C 13.69 25.50 16.18 29.98 14.46 34.82 C 17.05 34.49 16.09 31.81 16.58 30.14 C 17.09 25.17 21.67 19.88 27.08 21.04 C 29.96 21.43 32.86 21.20 35.75 21.29 C 35.01 25.41 34.05 29.50 33.72 33.68 C 36.46 33.91 39.17 34.69 41.93 34.42 C 44.82 33.29 44.37 30.08 44.08 27.62 C 42.93 28.95 42.09 30.57 40.67 31.65 C 39.06 31.97 37.39 31.90 35.76 31.96 C 37.45 28.21 39.56 24.67 41.30 20.94 C 43.27 20.87 45.24 20.82 47.21 20.77 C 47.99 25.20 50.30 29.41 49.07 34.03 C 52.24 33.26 51.60 37.56 49.73 38.66 C 44.22 41.10 38.40 37.04 32.93 39.19 C 31.14 39.56 29.79 37.81 28.17 37.30 C 26.11 37.89 24.20 39.39 21.94 39.05 C 20.03 38.72 18.60 37.31 17.13 36.18 C 15.70 39.97 11.33 39.40 8.04 39.34 C 5.66 39.39 3.44 38.47 1.33 37.47 C 1.47 36.61 1.75 34.91 1.89 34.05 C 4.10 34.12 6.76 35.36 8.63 33.63 C 10.67 32.32 9.62 29.62 9.73 27.66 C 8.62 28.86 7.81 30.35 6.55 31.42 C 4.97 32.14 3.10 31.82 1.41 32.07 C 2.95 28.15 5.18 24.58 7.04 20.82 Z" />
<path fill="#ffffff" d=" M 119.99 25.43 C 120.25 25.30 120.76 25.06 121.01 24.94 C 123.12 24.98 122.33 27.54 122.25 28.89 C 121.61 30.81 121.66 33.86 119.12 34.22 C 119.25 31.27 119.54 28.34 119.99 25.43 Z" />
<path fill="#ffffff" d=" M 25.30 26.32 C 26.66 25.62 28.50 26.18 28.62 27.89 C 28.38 30.27 27.21 32.99 24.89 34.00 C 22.97 34.86 21.76 32.50 22.16 30.91 C 22.69 29.13 23.64 27.28 25.30 26.32 Z" />
<path fill="#ffffff" d=" M 68.09 33.85 C 66.06 30.44 69.17 25.36 73.25 25.92 C 74.23 29.24 72.35 35.12 68.09 33.85 Z" />
<path fill="#ffffff" d=" M 89.25 31.16 C 90.37 29.06 91.89 26.63 94.52 26.42 C 96.36 29.62 91.19 30.19 89.25 31.16 Z" />
<path fill="#ffffff" d=" M 110.43 26.36 C 112.10 25.26 114.54 26.88 113.81 28.86 C 113.19 31.19 111.23 35.19 108.28 33.78 C 106.10 31.48 108.36 27.90 110.43 26.36 Z" />
</svg>
